<svg xmlns="http://www.w3.org/2000/svg" viewBox="0 0 280 64" role="img" aria-label="Chai Swad">
  <rect width="280" height="64" fill="none"/>
  <path d="M8 18h30l-3 24a12 12 0 0 1-12 10h0a12 12 0 0 1-12-10L8 18z" fill="#6F3E22"/>
  <path d="M12 18c2-8 7-12 12-12s10 4 12 12" fill="none" stroke="#4A2817" stroke-width="2.2" stroke-linecap="round"/>
  <path d="M38 26h7a8 8 0 0 1 0 16h-5" fill="none" stroke="#4A2817" stroke-width="2.2" stroke-linecap="round"/>
  <path d="M20 12c.8-3.5 1-3.5 1-7" fill="none" stroke="#D98A32" stroke-width="2" stroke-linecap="round"/>
  <path d="M28 13c.7-3 .8-3 .8-6" fill="none" stroke="#5E7C4A" stroke-width="2" stroke-linecap="round"/>
  <text x="62" y="40" font-family="Plus Jakarta Sans, Inter, sans-serif" font-size="30" font-weight="700" fill="#2B211C">Chai Swad</text>
</svg>
